<svg width="16" height="16" viewBox="0 0 16 16" fill="none" xmlns="http://www.w3.org/2000/svg">
<path d="M7.99999 13.3333L8.50666 11.3333C6.33333 11.1933 4.39333 10.2666 3.83333 9.05331C3.77333 9.37331 3.68666 9.66665 3.55333 9.88665C3.11333 10.6666 2.21999 10.6666 1.33333 10.6666C2.06666 10.6666 2.33333 9.61998 2.33333 8.33331C2.33333 7.04665 2.06666 5.99998 1.33333 5.99998C2.21999 5.99998 3.11333 5.99998 3.55333 6.77998C3.68666 6.99998 3.77333 7.29331 3.83333 7.61331C4.26666 6.66665 5.54666 5.89998 7.10666 5.54665L5.99999 3.33331C7.33333 3.33331 8.66666 3.33331 9.55333 3.77998C10.3067 4.15331 10.74 4.84665 11.1267 5.58665C13.0733 6.05331 14.6667 7.10665 14.6667 8.33331C14.6667 9.58665 13 10.6666 11 11.1066C10.4467 11.84 9.90666 12.52 9.44666 12.8866C8.88666 13.3333 8.44666 13.3333 7.99999 13.3333ZM11.3333 7.33331C11.1565 7.33331 10.9869 7.40355 10.8619 7.52858C10.7369 7.6536 10.6667 7.82317 10.6667 7.99998C10.6667 8.17679 10.7369 8.34636 10.8619 8.47138C10.9869 8.59641 11.1565 8.66665 11.3333 8.66665C11.5101 8.66665 11.6797 8.59641 11.8047 8.47138C11.9298 8.34636 12 8.17679 12 7.99998C12 7.82317 11.9298 7.6536 11.8047 7.52858C11.6797 7.40355 11.5101 7.33331 11.3333 7.33331Z" fill="white"/>
</svg>
