<svg width="16" height="16" viewBox="0 0 16 16" fill="none" xmlns="http://www.w3.org/2000/svg">
<g clip-path="url(#clip0_3_15)">
<path d="M0 1L1 0L3.287 2.287C4.05878 1.30741 5.11662 0.592644 6.31343 0.242092C7.51024 -0.108461 8.78654 -0.0773791 9.96486 0.331015C11.1432 0.73941 12.165 1.50482 12.8882 2.52082C13.6113 3.53682 14 4.75291 14 6V9.5L16 11.5H12.5L16 15L15 16L0 1ZM2.071 5.071C2.02329 5.37836 1.99955 5.68896 2 6V9.5L0 11.5H8.5L2.071 5.071ZM10 13H5C4.99879 13.7202 5.25667 14.4167 5.72656 14.9625C6.19645 15.5082 6.84697 15.8667 7.55932 15.9725C8.27167 16.0783 8.99831 15.9243 9.60651 15.5387C10.2147 15.153 10.6639 14.5614 10.872 13.872L10 13Z" fill="white"/>
</g>
<defs>
<clipPath id="clip0_3_15">
<rect width="16" height="16" fill="white"/>
</clipPath>
</defs>
</svg>
