<svg width="16" height="16" viewBox="0 0 16 16" fill="none" xmlns="http://www.w3.org/2000/svg">
<path d="M8.00001 1.33331C11.682 1.33331 14.6667 4.31798 14.6667 7.99998C14.6667 11.682 11.682 14.6666 8.00001 14.6666C4.31801 14.6666 1.33334 11.682 1.33334 7.99998C1.33334 4.31798 4.31801 1.33331 8.00001 1.33331ZM8.00001 10.6666C7.8232 10.6666 7.65363 10.7369 7.52861 10.8619C7.40358 10.9869 7.33334 11.1565 7.33334 11.3333C7.33334 11.5101 7.40358 11.6797 7.52861 11.8047C7.65363 11.9297 7.8232 12 8.00001 12C8.17682 12 8.34639 11.9297 8.47141 11.8047C8.59644 11.6797 8.66668 11.5101 8.66668 11.3333C8.66668 11.1565 8.59644 10.9869 8.47141 10.8619C8.34639 10.7369 8.17682 10.6666 8.00001 10.6666ZM8.00001 4.33331C7.35907 4.33331 6.74438 4.58793 6.29117 5.04114C5.83796 5.49435 5.58334 6.10904 5.58334 6.74998C5.58334 6.92679 5.65358 7.09636 5.77861 7.22138C5.90363 7.34641 6.0732 7.41665 6.25001 7.41665C6.42682 7.41665 6.59639 7.34641 6.72141 7.22138C6.84644 7.09636 6.91668 6.92679 6.91668 6.74998C6.9169 6.55334 6.97064 6.36046 7.07213 6.19204C7.17363 6.02361 7.31905 5.88599 7.49281 5.79393C7.66657 5.70186 7.86211 5.65883 8.05847 5.66944C8.25483 5.68005 8.44459 5.74391 8.60742 5.85416C8.77024 5.96442 8.89999 6.11691 8.98274 6.29529C9.0655 6.47367 9.09814 6.67122 9.07716 6.86674C9.05619 7.06226 8.98239 7.24838 8.86369 7.40516C8.74499 7.56193 8.58585 7.68343 8.40334 7.75665C7.95268 7.93665 7.33334 8.39798 7.33334 9.16665V9.33331C7.33334 9.51012 7.40358 9.67969 7.52861 9.80472C7.65363 9.92974 7.8232 9.99998 8.00001 9.99998C8.17682 9.99998 8.34639 9.92974 8.47141 9.80472C8.59644 9.67969 8.66668 9.51012 8.66668 9.33331C8.66668 9.17065 8.70001 9.08931 8.84068 9.01998L8.89868 8.99331C9.41922 8.78391 9.85071 8.39995 10.1192 7.90726C10.3876 7.41457 10.4763 6.84383 10.3701 6.2929C10.2638 5.74197 9.96926 5.24515 9.53684 4.88763C9.10442 4.5301 8.56109 4.33413 8.00001 4.33331Z" fill="white"/>
</svg>
