<svg width="16" height="16" viewBox="0 0 16 16" fill="none" xmlns="http://www.w3.org/2000/svg">
<path d="M2.66667 12.6666V6.66665C2.66667 6.45553 2.714 6.25554 2.80867 6.06665C2.90333 5.87776 3.03378 5.7222 3.2 5.59998L7.2 2.59998C7.43333 2.4222 7.7 2.33331 8 2.33331C8.3 2.33331 8.56667 2.4222 8.8 2.59998L12.8 5.59998C12.9667 5.7222 13.0973 5.87776 13.192 6.06665C13.2867 6.25554 13.3338 6.45553 13.3333 6.66665V12.6666C13.3333 13.0333 13.2027 13.3473 12.9413 13.6086C12.68 13.87 12.3662 14.0004 12 14H10C9.81111 14 9.65289 13.936 9.52533 13.808C9.39778 13.68 9.33378 13.5218 9.33333 13.3333V9.99998C9.33333 9.81109 9.26933 9.65287 9.14133 9.52531C9.01333 9.39776 8.85511 9.33376 8.66667 9.33331H7.33333C7.14445 9.33331 6.98622 9.39731 6.85867 9.52531C6.73111 9.65331 6.66711 9.81153 6.66667 9.99998V13.3333C6.66667 13.5222 6.60267 13.6806 6.47467 13.8086C6.34667 13.9366 6.18845 14.0004 6 14H4C3.63333 14 3.31956 13.8695 3.05867 13.6086C2.79778 13.3478 2.66711 13.0338 2.66667 12.6666Z" fill="white"/>
</svg>
