<svg width="16" height="16" viewBox="0 0 16 16" fill="none" xmlns="http://www.w3.org/2000/svg">
<path d="M8.00001 1.328C6.79314 1.32822 5.60898 1.65605 4.57383 2.27651C3.53867 2.89697 2.69136 3.78679 2.12227 4.85106C1.55319 5.91532 1.28368 7.11411 1.34249 8.31953C1.4013 9.52496 1.78622 10.6918 2.4562 11.6956C3.12619 12.6994 4.05609 13.5026 5.14673 14.0193C6.23736 14.5361 7.44782 14.7471 8.64897 14.6298C9.85012 14.5125 10.9969 14.0714 11.967 13.3535C12.9371 12.6356 13.6941 11.6678 14.1573 10.5533C14.3847 10.0067 13.84 9.45734 13.292 9.68C12.3528 10.0605 11.3099 10.0997 10.3448 9.79095C9.37962 9.4822 8.55318 8.84495 8.00917 7.99002C7.46515 7.13508 7.23796 6.11652 7.3671 5.11144C7.49624 4.10635 7.97354 3.17831 8.71601 2.48867L8.76734 2.43534C9.13467 2.01534 8.84267 1.33334 8.26201 1.33334H8.08467L8.03934 1.32934L8.00001 1.328Z" fill="white"/>
</svg>
