<svg width="16" height="16" viewBox="0 0 16 16" fill="none" xmlns="http://www.w3.org/2000/svg">
<path d="M9.40133 1.77598C9.82 1.49865 10.5293 1.30065 11.0647 1.83598L14.1627 4.93465C14.7 5.47065 14.5013 6.17998 14.2233 6.59798C14.0728 6.82464 13.8769 7.01759 13.648 7.16465C13.4253 7.30665 13.144 7.41398 12.8407 7.39798C12.6939 7.38759 12.5476 7.3718 12.402 7.35065L12.3567 7.34398C12.2003 7.32156 12.043 7.30533 11.8853 7.29532C11.5493 7.27865 11.42 7.33532 11.3787 7.37532L9.71866 9.03598C9.66533 9.08932 9.59866 9.20798 9.548 9.43598C9.49933 9.65598 9.478 9.92665 9.47266 10.2267C9.468 10.5147 9.478 10.8093 9.48866 11.0933L9.48933 11.1247C9.49933 11.4067 9.50933 11.6947 9.49533 11.9207C9.452 12.608 8.91666 13.114 8.39 13.348C7.86333 13.5813 7.112 13.6393 6.59 13.1166L5.09 11.6166L2.35333 14.3533C2.30756 14.4024 2.25236 14.4418 2.19102 14.4692C2.12969 14.4965 2.06348 14.5112 1.99635 14.5124C1.92921 14.5136 1.86253 14.5012 1.80027 14.4761C1.73801 14.4509 1.68145 14.4135 1.63397 14.366C1.58649 14.3185 1.54906 14.262 1.52392 14.1997C1.49877 14.1375 1.48642 14.0708 1.4876 14.0036C1.48879 13.9365 1.50348 13.8703 1.53081 13.809C1.55814 13.7476 1.59754 13.6924 1.64666 13.6467L4.38266 10.91L2.88266 9.40998C2.36066 8.88732 2.418 8.13665 2.652 7.60998C2.88533 7.08332 3.392 6.54798 4.07866 6.50465C4.30533 6.49065 4.59333 6.50065 4.87533 6.51065L4.90666 6.51132C5.19066 6.52132 5.48533 6.53198 5.77333 6.52732C6.07333 6.52198 6.344 6.50065 6.564 6.45198C6.792 6.40132 6.91066 6.33398 6.964 6.28065L8.624 4.62065C8.66466 4.57998 8.72133 4.44998 8.704 4.11398C8.69399 3.95629 8.67775 3.79906 8.65533 3.64265L8.64933 3.59732C8.62818 3.45172 8.61239 3.3054 8.602 3.15865C8.58533 2.85532 8.69266 2.57398 8.834 2.35132C8.978 2.12465 9.17733 1.92465 9.40133 1.77598Z" fill="currentColor"/>
</svg>
