<svg width="16" height="16" viewBox="0 0 16 16" fill="none" xmlns="http://www.w3.org/2000/svg">
<path d="M12 6.66669H9.33332V4.00002C9.33332 3.6464 9.19285 3.30726 8.9428 3.05721C8.69275 2.80716 8.35361 2.66669 7.99999 2.66669C7.64637 2.66669 7.30723 2.80716 7.05718 3.05721C6.80713 3.30726 6.66666 3.6464 6.66666 4.00002L6.71399 6.66669H3.99999C3.64637 6.66669 3.30723 6.80716 3.05718 7.05721C2.80713 7.30726 2.66666 7.6464 2.66666 8.00002C2.66666 8.35364 2.80713 8.69278 3.05718 8.94283C3.30723 9.19288 3.64637 9.33335 3.99999 9.33335L6.71399 9.28602L6.66666 12C6.66666 12.3536 6.80713 12.6928 7.05718 12.9428C7.30723 13.1929 7.64637 13.3334 7.99999 13.3334C8.35361 13.3334 8.69275 13.1929 8.9428 12.9428C9.19285 12.6928 9.33332 12.3536 9.33332 12V9.28602L12 9.33335C12.3536 9.33335 12.6928 9.19288 12.9428 8.94283C13.1928 8.69278 13.3333 8.35364 13.3333 8.00002C13.3333 7.6464 13.1928 7.30726 12.9428 7.05721C12.6928 6.80716 12.3536 6.66669 12 6.66669Z" fill="white"/>
</svg>
