<svg width="16" height="16" viewBox="0 0 16 16" fill="none" xmlns="http://www.w3.org/2000/svg">
<path fill-rule="evenodd" clip-rule="evenodd" d="M9.47199 3.21998C9.77422 3.31331 10.0631 3.43331 10.3387 3.57998L11.5607 2.84665C11.6881 2.77022 11.8374 2.73855 11.9849 2.75667C12.1323 2.77479 12.2695 2.84165 12.3747 2.94665L13.0533 3.62531C13.1583 3.73045 13.2252 3.86764 13.2433 4.01512C13.2614 4.16259 13.2298 4.31189 13.1533 4.43931L12.42 5.66131C12.5667 5.93687 12.6867 6.22576 12.78 6.52798L14.162 6.87398C14.3062 6.91009 14.4341 6.99334 14.5256 7.11051C14.617 7.22767 14.6667 7.37203 14.6667 7.52065V8.47931C14.6667 8.62793 14.617 8.77229 14.5256 8.88945C14.4341 9.00661 14.3062 9.08986 14.162 9.12598L12.78 9.47198C12.6867 9.7742 12.5667 10.0631 12.42 10.3386L13.1533 11.5606C13.2298 11.6881 13.2614 11.8374 13.2433 11.9848C13.2252 12.1323 13.1583 12.2695 13.0533 12.3746L12.3747 13.0533C12.2695 13.1583 12.1323 13.2252 11.9849 13.2433C11.8374 13.2614 11.6881 13.2297 11.5607 13.1533L10.3387 12.42C10.0631 12.5666 9.77422 12.6866 9.47199 12.78L9.12599 14.162C9.08988 14.3061 9.00663 14.4341 8.88947 14.5255C8.7723 14.617 8.62795 14.6666 8.47933 14.6666H7.52066C7.37204 14.6666 7.22769 14.617 7.11052 14.5255C6.99336 14.4341 6.91011 14.3061 6.87399 14.162L6.52799 12.78C6.22846 12.6874 5.93829 12.5669 5.66133 12.42L4.43933 13.1533C4.31191 13.2297 4.16261 13.2614 4.01513 13.2433C3.86766 13.2252 3.73046 13.1583 3.62533 13.0533L2.94666 12.3746C2.84167 12.2695 2.7748 12.1323 2.75669 11.9848C2.73857 11.8374 2.77024 11.6881 2.84666 11.5606L3.57999 10.3386C3.43309 10.0617 3.31256 9.77152 3.21999 9.47198L1.83799 9.12598C1.69394 9.08989 1.56606 9.00674 1.47464 8.88971C1.38321 8.77269 1.33348 8.62848 1.33333 8.47998V7.52131C1.33333 7.37269 1.383 7.22834 1.47443 7.11117C1.56587 6.99401 1.69383 6.91076 1.83799 6.87465L3.21999 6.52865C3.31333 6.22642 3.43333 5.93753 3.57999 5.66198L2.84666 4.43998C2.77024 4.31256 2.73857 4.16326 2.75669 4.01578C2.7748 3.86831 2.84167 3.73111 2.94666 3.62598L3.62533 2.94665C3.73046 2.84165 3.86766 2.77479 4.01513 2.75667C4.16261 2.73855 4.31191 2.77022 4.43933 2.84665L5.66133 3.57998C5.93688 3.43331 6.22577 3.31331 6.52799 3.21998L6.87399 1.83798C6.91008 1.69393 6.99323 1.56605 7.11026 1.47462C7.22729 1.3832 7.37149 1.33347 7.51999 1.33331H8.47866C8.62728 1.33332 8.77164 1.38298 8.8888 1.47442C9.00596 1.56585 9.08921 1.69382 9.12533 1.83798L9.47199 3.21998ZM7.99999 10.6666C8.70724 10.6666 9.38552 10.3857 9.88561 9.8856C10.3857 9.3855 10.6667 8.70722 10.6667 7.99998C10.6667 7.29274 10.3857 6.61446 9.88561 6.11436C9.38552 5.61426 8.70724 5.33331 7.99999 5.33331C7.29275 5.33331 6.61447 5.61426 6.11438 6.11436C5.61428 6.61446 5.33333 7.29274 5.33333 7.99998C5.33333 8.70722 5.61428 9.3855 6.11438 9.8856C6.61447 10.3857 7.29275 10.6666 7.99999 10.6666Z" fill="white"/>
</svg>
