<svg width="16" height="16" viewBox="0 0 16 16" fill="none" xmlns="http://www.w3.org/2000/svg">
<g clip-path="url(#clip0_3_27)">
<path d="M12 8C12 9.06087 11.5786 10.0783 10.8284 10.8284C10.0783 11.5786 9.06087 12 8 12C6.93913 12 5.92172 11.5786 5.17157 10.8284C4.42143 10.0783 4 9.06087 4 8C4 6.93913 4.42143 5.92172 5.17157 5.17157C5.92172 4.42143 6.93913 4 8 4C9.06087 4 10.0783 4.42143 10.8284 5.17157C11.5786 5.92172 12 6.93913 12 8Z" fill="white"/>
<path fill-rule="evenodd" clip-rule="evenodd" d="M8.00001 0.833313C8.13262 0.833313 8.25979 0.885991 8.35356 0.97976C8.44733 1.07353 8.50001 1.2007 8.50001 1.33331V1.99998C8.50001 2.13259 8.44733 2.25976 8.35356 2.35353C8.25979 2.4473 8.13262 2.49998 8.00001 2.49998C7.8674 2.49998 7.74022 2.4473 7.64646 2.35353C7.55269 2.25976 7.50001 2.13259 7.50001 1.99998V1.33331C7.50001 1.2007 7.55269 1.07353 7.64646 0.97976C7.74022 0.885991 7.8674 0.833313 8.00001 0.833313ZM2.93268 2.93265C3.02643 2.83901 3.15351 2.78642 3.28601 2.78642C3.41851 2.78642 3.54559 2.83901 3.63934 2.93265L3.90134 3.19398C3.99247 3.28824 4.04293 3.41452 4.04185 3.54561C4.04077 3.67671 3.98825 3.80215 3.89559 3.89489C3.80292 3.98764 3.67754 4.04029 3.54644 4.04149C3.41535 4.04269 3.28902 3.99235 3.19468 3.90131L2.93268 3.63931C2.83904 3.54556 2.78645 3.41848 2.78645 3.28598C2.78645 3.15348 2.83904 3.0264 2.93268 2.93265ZM13.0673 2.93265C13.161 3.0264 13.2136 3.15348 13.2136 3.28598C13.2136 3.41848 13.161 3.54556 13.0673 3.63931L12.8053 3.90131C12.7106 3.98963 12.5852 4.03771 12.4557 4.03543C12.3261 4.03314 12.2025 3.98067 12.1109 3.88906C12.0193 3.79745 11.9668 3.67386 11.9646 3.54433C11.9623 3.41479 12.0104 3.28943 12.0987 3.19465L12.3607 2.93265C12.4544 2.83901 12.5815 2.78642 12.714 2.78642C12.8465 2.78642 12.9736 2.83901 13.0673 2.93265ZM0.833344 7.99998C0.833344 7.86737 0.886022 7.74019 0.97979 7.64643C1.07356 7.55266 1.20074 7.49998 1.33334 7.49998H2.00001C2.13262 7.49998 2.2598 7.55266 2.35356 7.64643C2.44733 7.74019 2.50001 7.86737 2.50001 7.99998C2.50001 8.13259 2.44733 8.25976 2.35356 8.35353C2.2598 8.4473 2.13262 8.49998 2.00001 8.49998H1.33334C1.20074 8.49998 1.07356 8.4473 0.97979 8.35353C0.886022 8.25976 0.833344 8.13259 0.833344 7.99998ZM13.5 7.99998C13.5 7.86737 13.5527 7.74019 13.6465 7.64643C13.7402 7.55266 13.8674 7.49998 14 7.49998H14.6667C14.7993 7.49998 14.9265 7.55266 15.0202 7.64643C15.114 7.74019 15.1667 7.86737 15.1667 7.99998C15.1667 8.13259 15.114 8.25976 15.0202 8.35353C14.9265 8.4473 14.7993 8.49998 14.6667 8.49998H14C13.8674 8.49998 13.7402 8.4473 13.6465 8.35353C13.5527 8.25976 13.5 8.13259 13.5 7.99998ZM12.0987 12.0986C12.1924 12.005 12.3195 11.9524 12.452 11.9524C12.5845 11.9524 12.7116 12.005 12.8053 12.0986L13.0673 12.3606C13.1165 12.4064 13.1559 12.4616 13.1832 12.523C13.2105 12.5843 13.2252 12.6505 13.2264 12.7176C13.2276 12.7848 13.2152 12.8515 13.1901 12.9137C13.1649 12.976 13.1275 13.0325 13.08 13.08C13.0326 13.1275 12.976 13.1649 12.9137 13.1901C12.8515 13.2152 12.7848 13.2276 12.7177 13.2264C12.6505 13.2252 12.5843 13.2105 12.523 13.1832C12.4617 13.1558 12.4065 13.1164 12.3607 13.0673L12.0987 12.8053C12.005 12.7116 11.9524 12.5845 11.9524 12.452C11.9524 12.3195 12.005 12.1924 12.0987 12.0986ZM3.90134 12.0986C3.99498 12.1924 4.04757 12.3195 4.04757 12.452C4.04757 12.5845 3.99498 12.7116 3.90134 12.8053L3.63934 13.0673C3.59357 13.1164 3.53837 13.1558 3.47704 13.1832C3.4157 13.2105 3.34949 13.2252 3.28236 13.2264C3.21522 13.2276 3.14854 13.2152 3.08628 13.1901C3.02402 13.1649 2.96746 13.1275 2.91998 13.08C2.87251 13.0325 2.83508 12.976 2.80993 12.9137C2.78478 12.8515 2.77243 12.7848 2.77362 12.7176C2.7748 12.6505 2.78949 12.5843 2.81682 12.523C2.84415 12.4616 2.88355 12.4064 2.93268 12.3606L3.19401 12.0986C3.24044 12.0522 3.29558 12.0153 3.35626 11.9902C3.41694 11.965 3.48199 11.9521 3.54768 11.9521C3.61336 11.9521 3.67841 11.965 3.73909 11.9902C3.79978 12.0153 3.85491 12.0522 3.90134 12.0986ZM8.00001 13.5C8.13262 13.5 8.25979 13.5527 8.35356 13.6464C8.44733 13.7402 8.50001 13.8674 8.50001 14V14.6666C8.50001 14.7993 8.44733 14.9264 8.35356 15.0202C8.25979 15.114 8.13262 15.1666 8.00001 15.1666C7.8674 15.1666 7.74022 15.114 7.64646 15.0202C7.55269 14.9264 7.50001 14.7993 7.50001 14.6666V14C7.50001 13.8674 7.55269 13.7402 7.64646 13.6464C7.74022 13.5527 7.8674 13.5 8.00001 13.5Z" fill="white"/>
</g>
<defs>
<clipPath id="clip0_3_27">
<rect width="16" height="16" fill="white"/>
</clipPath>
</defs>
</svg>
