<svg width="16" height="16" viewBox="0 0 16 16" fill="none" xmlns="http://www.w3.org/2000/svg">
<path d="M12.098 4.48867C10.9216 4.3098 9.71912 4.43087 8.60201 4.84067L8.37134 4.92867C6.85957 5.54132 5.21052 5.73479 3.598 5.48867C2.906 5.382 2.18467 5.21 1.55267 4.89467C1.32238 4.78054 1.14487 4.58213 1.05698 4.3406C0.969097 4.09907 0.977582 3.83298 1.08068 3.59754C1.18377 3.3621 1.37356 3.1754 1.61066 3.07618C1.84775 2.97696 2.11395 2.97283 2.354 3.06467L2.442 3.10333C2.89667 3.31667 3.40867 3.436 3.902 3.512C4.798 3.64933 6.02401 3.65867 7.39801 3.15933L7.62867 3.07133C9.14044 2.45868 10.7895 2.26521 12.402 2.51133C13.094 2.618 13.8147 2.79067 14.446 3.10467C14.6819 3.22498 14.861 3.43315 14.9448 3.68431C15.0286 3.93547 15.0104 4.2095 14.894 4.44733C14.648 4.93933 14.146 5.052 13.5573 4.89667L12.098 4.48867ZM12.098 8.48867C10.9216 8.3098 9.71912 8.43087 8.60201 8.84067L8.37134 8.92867C6.85957 9.54132 5.21052 9.73479 3.598 9.48867C2.906 9.382 2.18467 9.21 1.55267 8.89467C1.32238 8.78054 1.14487 8.58213 1.05698 8.3406C0.969097 8.09907 0.977582 7.83298 1.08068 7.59754C1.18377 7.3621 1.37356 7.1754 1.61066 7.07618C1.84775 6.97696 2.11395 6.97283 2.354 7.06467L2.442 7.10333C2.89667 7.31667 3.40867 7.436 3.902 7.512C4.798 7.64933 6.02401 7.65867 7.39801 7.15933L7.62867 7.07133C9.14044 6.45868 10.7895 6.26521 12.402 6.51133C13.094 6.618 13.8147 6.79067 14.446 7.10467C14.6819 7.22498 14.861 7.43315 14.9448 7.68431C15.0286 7.93547 15.0104 8.2095 14.894 8.44733C14.648 8.94 14.146 9.052 13.5573 8.89667L12.098 8.48867ZM8.12867 13.022L8.37134 12.9287C9.55121 12.4488 10.8388 12.2968 12.098 12.4887L13.558 12.8967C14.146 13.052 14.648 12.94 14.8947 12.4473C15.0108 12.2095 15.0288 11.9356 14.9449 11.6845C14.861 11.4335 14.6818 11.2255 14.446 11.1053C13.8147 10.7907 13.094 10.6187 12.402 10.512C10.8765 10.2794 9.31679 10.44 7.87067 10.9787L7.62867 11.072C6.16067 11.6587 4.84734 11.6573 3.902 11.512C3.47934 11.4467 3.042 11.35 2.64 11.1893L2.442 11.1027C2.20437 10.9847 1.92962 10.966 1.6782 11.0507C1.42677 11.1353 1.21927 11.3164 1.10134 11.554C0.983405 11.7916 0.964702 12.0664 1.04934 12.3178C1.13399 12.5692 1.31504 12.7767 1.55267 12.8947C2.184 13.21 2.906 13.382 3.598 13.488C4.766 13.668 6.36001 13.6747 8.12867 13.0213V13.022Z" fill="white"/>
</svg>
